<?xml version="1.0" encoding="UTF-8" standalone="no"?>
<!-- Created with Inkscape (http://www.inkscape.org/) -->

<svg
   width="1200"
   height="630"
   viewBox="0 0 317.49999 166.6875"
   version="1.1"
   id="svg1"
   xml:space="preserve"
   inkscape:version="1.4.3 (0d15f75042, 2025-12-25)"
   inkscape:export-filename="og.png"
   inkscape:export-xdpi="96"
   inkscape:export-ydpi="96"
   sodipodi:docname="og.svg"
   xmlns:inkscape="http://www.inkscape.org/namespaces/inkscape"
   xmlns:sodipodi="http://sodipodi.sourceforge.net/DTD/sodipodi-0.dtd"
   xmlns="http://www.w3.org/2000/svg"
   xmlns:svg="http://www.w3.org/2000/svg"><sodipodi:namedview
     id="namedview1"
     pagecolor="#ffffff"
     bordercolor="#000000"
     borderopacity="0.25"
     inkscape:showpageshadow="2"
     inkscape:pageopacity="0.0"
     inkscape:pagecheckerboard="0"
     inkscape:deskcolor="#d1d1d1"
     inkscape:document-units="mm"
     inkscape:zoom="0.1496633"
     inkscape:cx="16.704162"
     inkscape:cy="684.87063"
     inkscape:window-width="1920"
     inkscape:window-height="1040"
     inkscape:window-x="0"
     inkscape:window-y="0"
     inkscape:window-maximized="0"
     inkscape:current-layer="layer1"
     inkscape:export-bgcolor="#ffffffff" /><defs
     id="defs1" /><g
     inkscape:label="Layer 1"
     inkscape:groupmode="layer"
     id="layer1"><text
       xml:space="preserve"
       style="font-weight:600;font-size:32.5353px;line-height:0;font-family:Rubik;-inkscape-font-specification:'Rubik Semi-Bold';text-align:center;letter-spacing:0.33891px;word-spacing:0.0135564px;writing-mode:lr-tb;direction:ltr;text-anchor:middle;fill:#0000ff;stroke-width:0.256184"
       x="105.28127"
       y="92.424049"
       id="text1"><tspan
         sodipodi:role="line"
         id="tspan1"
         style="font-style:normal;font-variant:normal;font-weight:bold;font-stretch:normal;font-size:32.5353px;font-family:'Source Serif 4 Caption';-inkscape-font-specification:'Source Serif 4 Caption Bold';font-variant-ligatures:normal;font-variant-caps:normal;font-variant-numeric:normal;font-variant-east-asian:normal;fill:#000000;fill-opacity:1;stroke-width:0.256184"
         x="105.45072"
         y="92.424049">Panache</tspan></text><path
       style="fill:#ac4a5e;fill-opacity:1;stroke:none;stroke-width:0.264583;stroke-linecap:round;stroke-dasharray:none;stroke-opacity:1"
       d="m 202.4296,105.31962 c 0,0 -0.3125,-6.243804 -0.3125,-8.125407 0,-5.8596 2.1876,-12.9694 6.7972,-17.9696 0,0 -3.047,9.5317 -1.3282,14.2976 0,0 1.6375,-18.3421 16.4071,-26.9545 0,0 -5.5472,8.9848 -4.7659,13.8288 0,0 6.4066,-18.6728 24.22,-23.595 0,0 -6.2503,8.9849 -7.9691,14.532 0,0 10.7818,-14.6882 14.2976,-16.4071 0,0 29.2147,-8.5618 30.939,-27.1107 0,0 3.2033,16.7196 -2.8126,28.2046 -6.0159,11.4849 -24.6106,16.2508 -24.6106,16.2508 0,0 18.829,-2.1095 25.3919,-11.7975 0,0 -3.3096,13.2182 -13.7791,18.2135 -8.9548,4.2726 -13.6332,3.7283 -19.0459,4.0611 -6.7266,0.4137 -11.6327,1.7607 -15.2338,3.4298 0,0 7.9786,-1.25 12.5101,-1.1719 4.5315,0.078 15.7039,0.8594 21.4855,-2.7345 0,0 -5.7582,10.3483 -21.3292,11.5631 -11.0162,0.8594 -16.2509,-1.0157 -27.7358,5.625303 0,0 7.5004,-3.047103 16.0945,-2.578303 8.5942,0.4688 11.6413,-0.2344 11.6413,-0.2344 0,0 -5.7816,4.531507 -13.5945,5.781607 -7.8129,1.25 -18.1259,3.7502 -23.048,9.8442 -4.9222,6.0941 -5.3128,10.4693 -5.3128,10.4693 l -7.0316,4.2971 c 0,0 7.786,-22.7202 29.6109,-39.767707 13.692,-10.6948 39.0645,-24.845 41.8771,-29.0639 0,0 -15.9701,10.3381 -29.8139,16.8333 -14.1089,6.6197 -28.1578,19.8873 -33.5487,30.278407 z"
       id="path9"
       sodipodi:nodetypes="csccccccccsccsscscscscssccscsc" /></g></svg>
