<?xml version="1.0" encoding="UTF-8" standalone="no"?>
<!-- Created with Inkscape (http://www.inkscape.org/) -->

<svg
   width="1700.7922"
   height="375.01913"
   viewBox="0 0 450.00126 99.223813"
   version="1.1"
   id="svg1"
   xml:space="preserve"
   inkscape:version="1.4.3 (0d15f75042, 2025-12-25)"
   inkscape:export-filename="og.png"
   inkscape:export-xdpi="96"
   inkscape:export-ydpi="96"
   sodipodi:docname="logo-with-text-dark.svg"
   xmlns:inkscape="http://www.inkscape.org/namespaces/inkscape"
   xmlns:sodipodi="http://sodipodi.sourceforge.net/DTD/sodipodi-0.dtd"
   xmlns="http://www.w3.org/2000/svg"
   xmlns:svg="http://www.w3.org/2000/svg"><sodipodi:namedview
     id="namedview1"
     pagecolor="#ffffff"
     bordercolor="#000000"
     borderopacity="0.25"
     inkscape:showpageshadow="2"
     inkscape:pageopacity="0.0"
     inkscape:pagecheckerboard="0"
     inkscape:deskcolor="#d1d1d1"
     inkscape:document-units="mm"
     inkscape:zoom="0.21165587"
     inkscape:cx="401.59529"
     inkscape:cy="356.71111"
     inkscape:window-width="1080"
     inkscape:window-height="1812"
     inkscape:window-x="0"
     inkscape:window-y="0"
     inkscape:window-maximized="0"
     inkscape:current-layer="layer1"
     inkscape:export-bgcolor="#ffffffff" /><defs
     id="defs1" /><g
     inkscape:label="Layer 1"
     inkscape:groupmode="layer"
     id="layer1"
     transform="translate(-13.044953,-36.566159)"><path
       style="font-weight:bold;font-size:73.3846px;line-height:0;font-family:'Source Serif 4 Caption';-inkscape-font-specification:'Source Serif 4 Caption Bold';text-align:center;letter-spacing:0.489582px;word-spacing:0.0195833px;text-anchor:middle;fill:#dddddd;fill-rule:evenodd;stroke-width:0.370078"
       d="m 160.55295,73.191287 c 7.26508,0 10.05369,3.008769 10.05369,9.613382 0,6.604614 -2.78861,10.273844 -10.86092,10.273844 h -1.908 V 73.191287 Z m -22.45568,0.220154 h 6.1643 v 37.205989 h -6.1643 v 5.50385 h 27.07891 v -5.50385 h -7.33846 V 98.068666 h 2.93539 c 16.29138,0 23.62984,-6.017537 23.62984,-15.557535 0,-9.539998 -7.33846,-14.603535 -23.26292,-14.603535 h -23.04276 z m 84.07468,43.810609 c 3.96277,0 7.26507,-2.05477 8.95292,-4.03616 l -0.88062,-4.2563 c -0.954,0.14677 -1.98138,0.29353 -3.08215,0.29353 -1.61446,0 -2.49508,-0.88061 -2.49508,-2.64184 V 90.803591 c 0,-9.173075 -5.87076,-13.429382 -16.58492,-13.429382 -9.83353,0 -16.36476,3.889384 -17.46553,10.934305 0.66046,2.788615 2.34831,4.329692 5.57723,4.329692 3.00877,0 5.50384,-2.054769 5.57723,-7.265076 l 0.0734,-3.008768 c 1.02739,-0.146769 2.20154,-0.293539 3.37569,-0.293539 4.3297,0 6.82477,2.054769 6.82477,7.265076 v 3.962768 c -2.78861,0.660461 -5.65061,1.320923 -8.43923,1.981384 -10.20046,2.274923 -14.16322,6.164309 -14.16322,12.255229 0,5.79738 4.18292,9.76015 10.27384,9.76015 6.38446,0 9.09969,-3.66923 10.86092,-6.75138 h 2.49508 c 1.10077,4.32969 4.03615,6.678 9.09969,6.678 z m -21.28154,-13.06246 c 0,-2.42169 1.10077,-4.403078 4.84339,-5.503847 2.20154,-0.660462 4.32969,-1.247539 6.31107,-1.761231 v 10.934308 c -1.54107,0.80723 -3.22892,1.3943 -5.13692,1.3943 -3.88938,0 -6.01754,-1.98138 -6.01754,-5.06353 z m 33.5126,11.96169 h 21.50169 v -5.21031 h -3.96277 V 88.895591 c 2.49508,-1.467692 4.84338,-2.274922 7.26507,-2.274922 3.66923,0 5.35708,1.687845 5.35708,5.870767 v 18.419534 h -4.03615 v 5.21031 H 282.103 v -5.21031 h -4.91677 V 90.069745 c 0,-8.29246 -4.03615,-12.695536 -11.448,-12.695536 -6.53123,0 -9.68676,3.889384 -12.47538,7.998921 h -2.42169 l -1.10077,-6.971536 h -3.74261 l -11.88831,3.962768 v 4.916768 h 5.21031 v 23.62984 h -4.91677 z m 85.39558,1.10077 c 3.96277,0 7.26507,-2.05477 8.95292,-4.03616 l -0.88062,-4.2563 c -0.954,0.14677 -1.98138,0.29353 -3.08215,0.29353 -1.61446,0 -2.49508,-0.88061 -2.49508,-2.64184 V 90.803591 c 0,-9.173075 -5.87076,-13.429382 -16.58492,-13.429382 -9.83353,0 -16.36476,3.889384 -17.46553,10.934305 0.66046,2.788615 2.34831,4.329692 5.57723,4.329692 3.00877,0 5.50384,-2.054769 5.57723,-7.265076 l 0.0734,-3.008768 c 1.02739,-0.146769 2.20154,-0.293539 3.3757,-0.293539 4.32969,0 6.82476,2.054769 6.82476,7.265076 v 3.962768 c -2.78861,0.660461 -5.65061,1.320923 -8.43923,1.981384 -10.20046,2.274923 -14.16322,6.164309 -14.16322,12.255229 0,5.79738 4.18292,9.76015 10.27384,9.76015 6.38446,0 9.09969,-3.66923 10.86092,-6.75138 h 2.49508 c 1.10077,4.32969 4.03615,6.678 9.09969,6.678 z m -21.28154,-13.06246 c 0,-2.42169 1.10077,-4.403078 4.84339,-5.503847 2.20154,-0.660462 4.32969,-1.247539 6.31107,-1.761231 v 10.934308 c -1.54107,0.80723 -3.22892,1.3943 -5.13692,1.3943 -3.88938,0 -6.01754,-1.98138 -6.01754,-5.06353 z m 53.4732,13.06246 c 9.68677,0 14.16323,-4.84339 16.58492,-8.29246 l -3.816,-3.30231 c -1.98138,2.05477 -4.47646,4.18292 -8.87953,4.18292 -6.31108,0 -10.42062,-4.69661 -10.42062,-13.42938 0,-9.246459 3.74262,-14.53015 9.83354,-14.53015 0.58708,0 1.17415,0 1.68785,0.07338 l 0.4403,3.66923 c 0.22016,3.449076 2.4217,5.944153 5.87077,5.944153 3.22892,0 5.06354,-2.201538 5.35708,-5.723999 -1.908,-4.329691 -6.82477,-8.439229 -16.218,-8.439229 -11.66815,0 -20.10738,8.512614 -20.10738,20.547688 0,11.888303 7.85215,19.300153 19.66707,19.300153 z m 21.40422,-1.10077 h 21.64846 v -5.21031 h -4.10954 V 88.895591 c 2.49508,-1.467692 4.91677,-2.274922 7.33846,-2.274922 3.66923,0 5.28369,1.687845 5.28369,5.870767 v 18.419534 h -3.96277 v 5.21031 h 21.50169 v -5.21031 h -4.91677 V 90.289898 c 0,-8.365844 -3.96277,-12.915689 -11.448,-12.915689 -6.45784,0 -9.53999,4.329691 -11.37461,7.998921 h -2.56846 l 0.14677,-11.888304 v -9.906921 h -4.18292 l -13.72292,2.421692 v 4.109537 l 5.28369,1.467692 v 39.334144 h -4.91677 z m 72.40644,-34.050457 c 3.66923,0 5.79738,3.008769 5.79738,7.485229 0,1.981385 -0.0734,2.935384 -0.22015,4.916769 h -12.54877 c 0.22015,-9.099691 2.42169,-12.401998 6.97154,-12.401998 z m 0.66046,35.151227 c 8.586,0 13.42938,-3.816 16.58492,-8.80616 l -3.59585,-2.78861 c -2.27492,2.71523 -4.99015,4.25631 -9.46661,4.25631 -5.87077,0 -10.20046,-3.74262 -11.00769,-11.374617 h 23.18953 c 0.29354,-1.614461 0.5137,-3.228922 0.5137,-5.43046 0,-9.760151 -6.60462,-15.704304 -16.80508,-15.704304 -11.59476,0 -19.74045,7.925537 -19.74045,20.180765 0,12.255226 7.85215,19.667076 20.32753,19.667076 z"
       id="text1"
       aria-label="Panache" /><path
       style="fill:#ac4a5e;fill-opacity:1;stroke:none;stroke-width:0.264583;stroke-linecap:round;stroke-dasharray:none;stroke-opacity:1"
       d="m 21.170353,114.07007 c 0,0 -0.3125,-6.24381 -0.3125,-8.12541 0,-5.8596 2.1876,-12.969401 6.7972,-17.969601 0,0 -3.047,9.5317 -1.3282,14.297601 0,0 1.6375,-18.342101 16.4071,-26.954501 0,0 -5.5472,8.9848 -4.7659,13.8288 0,0 6.4066,-18.6728 24.22,-23.595 0,0 -6.2503,8.9849 -7.9691,14.532 0,0 10.7818,-14.6882 14.2976,-16.4071 0,0 29.2147,-8.5618 30.939,-27.1107 0,0 3.203297,16.7196 -2.8126,28.2046 -6.0159,11.4849 -24.6106,16.2508 -24.6106,16.2508 0,0 18.829,-2.1095 25.3919,-11.7975 0,0 -3.3096,13.2182 -13.7791,18.2135 -8.9548,4.2726 -13.6332,3.7283 -19.0459,4.0611 -6.7266,0.4137 -11.6327,1.7607 -15.2338,3.4298 0,0 7.9786,-1.25 12.5101,-1.1719 4.5315,0.078 15.7039,0.8594 21.4855,-2.7345 0,0 -5.7582,10.348301 -21.3292,11.563101 -11.0162,0.8594 -16.2509,-1.0157 -27.7358,5.6253 0,0 7.5004,-3.0471 16.0945,-2.5783 8.5942,0.4688 11.6413,-0.2344 11.6413,-0.2344 0,0 -5.7816,4.53151 -13.5945,5.78161 -7.8129,1.25 -18.1259,3.7502 -23.048,9.8442 -4.9222,6.0941 -5.3128,10.4693 -5.3128,10.4693 l -7.0316,4.2971 c 0,0 7.786,-22.7202 29.6109,-39.767711 13.692,-10.6948 39.0645,-24.845 41.8771,-29.0639 0,0 -15.9701,10.3381 -29.8139,16.8333 -14.1089,6.6197 -28.1578,19.887301 -33.5487,30.278411 z"
       id="path9"
       sodipodi:nodetypes="csccccccccsccsscscscscssccscsc" /></g></svg>
