<svg xmlns="http://www.w3.org/2000/svg" version="1.1" width="329.81134" height="375.0191" viewBox="0 0 87.262581 99.223801" id="svg1" inkscape:version="1.4.3 (0d15f75042, 2025-12-25)" sodipodi:docname="logo.svg" xmlns:inkscape="http://www.inkscape.org/namespaces/inkscape" xmlns:sodipodi="http://sodipodi.sourceforge.net/DTD/sodipodi-0.dtd" xmlns:svg="http://www.w3.org/2000/svg"><sodipodi:namedview id="namedview1" pagecolor="#ffffff" bordercolor="#000000" borderopacity="0.25" inkscape:showpageshadow="2" inkscape:pageopacity="0.0" inkscape:pagecheckerboard="0" inkscape:deskcolor="#d1d1d1" inkscape:document-units="mm" inkscape:zoom="0.29384718" inkscape:cx="-86.779802" inkscape:cy="311.38635" inkscape:window-width="1920" inkscape:window-height="1066" inkscape:window-x="0" inkscape:window-y="0" inkscape:window-maximized="0" inkscape:current-layer="layer1"></sodipodi:namedview><defs id="defs1"></defs><g inkscape:label="Layer 1" inkscape:groupmode="layer" id="layer1" transform="translate(-9.4043599,-2.753668)">
    <path style="fill:#ac4a5e;fill-opacity:1;stroke:none;stroke-width:0.264583;stroke-linecap:round;stroke-dasharray:none;stroke-opacity:1" d="m 17.529759,80.257568 c 0,0 -0.3125,-6.2438 -0.3125,-8.1254 0,-5.8596 2.1876,-12.9694 6.7972,-17.9696 0,0 -3.047,9.5317 -1.3282,14.2976 0,0 1.6375,-18.3421 16.4071,-26.9545 0,0 -5.5472,8.9848 -4.7659,13.8288 0,0 6.4066,-18.6728 24.22,-23.595 0,0 -6.2503,8.9849 -7.9691,14.532 0,0 10.781798,-14.6882 14.297598,-16.4071 0,0 29.2147,-8.5618 30.939,-27.1107 0,0 3.2033,16.7196 -2.8126,28.2046 -6.0159,11.4849 -24.6106,16.2508 -24.6106,16.2508 0,0 18.829,-2.1095 25.3919,-11.7975 0,0 -3.3096,13.2182 -13.7791,18.2135 -8.9548,4.2726 -13.6332,3.7283 -19.0459,4.0611 -6.726598,0.4137 -11.632698,1.7607 -15.233798,3.4298 0,0 7.9786,-1.25 12.5101,-1.1719 4.531498,0.078 15.703898,0.8594 21.485498,-2.7345 0,0 -5.7582,10.3483 -21.329198,11.5631 -11.0162,0.8594 -16.2509,-1.0157 -27.7358,5.6253 0,0 7.5004,-3.0471 16.0945,-2.5783 8.5942,0.4688 11.6413,-0.2344 11.6413,-0.2344 0,0 -5.7816,4.5315 -13.5945,5.7816 -7.8129,1.25 -18.1259,3.7502 -23.048,9.8442 -4.9222,6.0941 -5.3128,10.4693 -5.3128,10.4693 l -7.0315991,4.297102 c 0,0 7.7859991,-22.720202 29.6108991,-39.767702 13.692,-10.6948 39.064498,-24.845 41.877098,-29.0639 0,0 -15.9701,10.3381 -29.813898,16.8333 -14.1089,6.6197 -28.1578,19.8873 -33.5487,30.2784 z" id="path9" sodipodi:nodetypes="csccccccccsccsscscscscssccscsc"></path>
  </g></svg>